<?xml version="1.0" encoding="UTF-8" standalone="no"?><!DOCTYPE svg PUBLIC "-//W3C//DTD SVG 1.1//EN" "http://www.w3.org/Graphics/SVG/1.1/DTD/svg11.dtd"><!-- Generated by graphviz version 2.40.1 (20161225.0304)
 --><!-- Title: G Pages: 1 --><svg xmlns="http://www.w3.org/2000/svg" xmlns:xlink="http://www.w3.org/1999/xlink" width="203pt" height="332pt" viewBox="0.00 0.00 202.76 332.00">
<g id="graph0" class="graph" transform="scale(1 1) rotate(0) translate(4 328)">
<title>G</title>
<polygon fill="#ffffff" stroke="transparent" points="-4,4 -4,-328 198.7585,-328 198.7585,4 -4,4"/>
<!-- start -->
<g id="node1" class="node">
<title>start</title>
<polygon fill="none" stroke="#000000" points="97.3792,-324 58.1419,-306 97.3792,-288 136.6166,-306 97.3792,-324"/>
<text text-anchor="middle" x="97.3792" y="-301.8" font-family="Times,serif" font-size="14.00" fill="#000000">start</text>
</g>
<!-- parse conda_env.yaml -->
<g id="node4" class="node">
<title>parse conda_env.yaml</title>
<ellipse fill="none" stroke="#000000" cx="97.3792" cy="-234" rx="97.2586" ry="18"/>
<text text-anchor="middle" x="97.3792" y="-229.8" font-family="Times,serif" font-size="14.00" fill="#000000">parse conda_env.yaml</text>
</g>
<!-- start&#45;&gt;parse conda_env.yaml -->
<g id="edge1" class="edge">
<title>start-&gt;parse conda_env.yaml</title>
<path fill="none" stroke="#000000" d="M97.3792,-287.8314C97.3792,-280.131 97.3792,-270.9743 97.3792,-262.4166"/>
<polygon fill="#000000" stroke="#000000" points="100.8793,-262.4132 97.3792,-252.4133 93.8793,-262.4133 100.8793,-262.4132"/>
</g>
<!-- end -->
<g id="node2" class="node">
<title>end</title>
<polygon fill="none" stroke="#000000" points="97.3792,-36 62.2238,-18 97.3792,0 132.5347,-18 97.3792,-36"/>
<text text-anchor="middle" x="97.3792" y="-13.8" font-family="Times,serif" font-size="14.00" fill="#000000">end</text>
</g>
<!-- download -->
<g id="node3" class="node">
<title>download</title>
<polygon fill="none" stroke="#ff0000" points="180.4299,-180 14.3286,-180 14.3286,-144 180.4299,-144 180.4299,-180"/>
<text text-anchor="middle" x="97.3792" y="-157.8" font-family="Times,serif" font-size="14.00" fill="#000000">Download conda packages</text>
</g>
<!-- Run the job -->
<g id="node5" class="node">
<title>Run the job</title>
<ellipse fill="none" stroke="#000000" cx="97.3792" cy="-90" rx="56.2034" ry="18"/>
<text text-anchor="middle" x="97.3792" y="-85.8" font-family="Times,serif" font-size="14.00" fill="#000000">Run the job</text>
</g>
<!-- download&#45;&gt;Run the job -->
<g id="edge3" class="edge">
<title>download-&gt;Run the job</title>
<path fill="none" stroke="#000000" d="M97.3792,-143.8314C97.3792,-136.131 97.3792,-126.9743 97.3792,-118.4166"/>
<polygon fill="#000000" stroke="#000000" points="100.8793,-118.4132 97.3792,-108.4133 93.8793,-118.4133 100.8793,-118.4132"/>
</g>
<!-- parse conda_env.yaml&#45;&gt;download -->
<g id="edge2" class="edge">
<title>parse conda_env.yaml-&gt;download</title>
<path fill="none" stroke="#000000" d="M97.3792,-215.8314C97.3792,-208.131 97.3792,-198.9743 97.3792,-190.4166"/>
<polygon fill="#000000" stroke="#000000" points="100.8793,-190.4132 97.3792,-180.4133 93.8793,-190.4133 100.8793,-190.4132"/>
</g>
<!-- Run the job&#45;&gt;end -->
<g id="edge4" class="edge">
<title>Run the job-&gt;end</title>
<path fill="none" stroke="#000000" d="M97.3792,-71.8314C97.3792,-64.131 97.3792,-54.9743 97.3792,-46.4166"/>
<polygon fill="#000000" stroke="#000000" points="100.8793,-46.4132 97.3792,-36.4133 93.8793,-46.4133 100.8793,-46.4132"/>
</g>
</g>
</svg>