<svg width="1453.33" height="1309.33" viewBox="0 0 1090.04 982" xmlns="http://www.w3.org/2000/svg" xmlns:xlink="http://www.w3.org/1999/xlink" overflow="hidden"><g id="graph0" transform="translate(4 978)"><path d="M-4 4-4-978 1086.04-978 1086.04 4-4 4Z" fill="#FFFFFF"/><g id="node1"><path d="M555.52-36C555.52-36 525.52-36 525.52-36 519.52-36 513.52-30 513.52-24 513.52-24 513.52-12 513.52-12 513.52-6 519.52 0 525.52 0 525.52 0 555.52 0 555.52 0 561.52 0 567.52-6 567.52-12 567.52-12 567.52-24 567.52-24 567.52-30 561.52-36 555.52-36" stroke="#D85656" stroke-width="2" fill="none"/><text font-family="sans" font-size="10" text-anchor="middle" x="540.52" y="-15">all</text></g><g id="node2"><path d="M135.61-254C135.61-254 83.43-254 83.43-254 77.43-254 71.43-248 71.43-242 71.43-242 71.43-228 71.43-228 71.43-222 77.43-216 83.43-216 83.43-216 135.61-216 135.61-216 141.61-216 147.61-222 147.61-228 147.61-228 147.61-242 147.61-242 147.61-248 141.61-254 135.61-254" stroke="#8FD856" stroke-width="2" fill="none"/><text font-family="sans" font-size="10" text-anchor="middle" x="109.52" y="-242">calc_distance</text><text font-family="sans" font-size="10" text-anchor="middle" x="109.52" y="-232">bin_size: 5</text><text font-family="sans" font-size="10" text-anchor="middle" x="109.52" y="-222">metric: ks</text></g><g id="edge1"><path d="M107.52-215.97C104.9-182.21 104.67-109.51 145.52-72 197.25-24.5 415.31-19.01 503.39-18.77" stroke="#808080" stroke-width="2" fill="none"/><path d="M503.47-22.27 513.46-18.76 503.46-15.27 503.47-22.27Z" stroke="#808080" stroke-width="2" fill="#808080"/></g><g id="node20"><path d="M69.44-180C69.44-180 13.6-180 13.6-180 7.6-180 1.6-174 1.6-168 1.6-168 1.6-156 1.6-156 1.6-150 7.6-144 13.6-144 13.6-144 69.44-144 69.44-144 75.44-144 81.44-150 81.44-156 81.44-156 81.44-168 81.44-168 81.44-174 75.44-180 69.44-180" stroke="#56D892" stroke-width="2" fill="none"/><text font-family="sans" font-size="10" text-anchor="middle" x="41.52" y="-159">calc_short_file</text></g><g id="edge37"><path d="M92.01-215.72C83.77-207.11 73.82-196.73 64.95-187.46" stroke="#808080" stroke-width="2" fill="none"/><path d="M67.25-184.8 57.8-180 62.19-189.65 67.25-184.8Z" stroke="#808080" stroke-width="2" fill="#808080"/></g><g id="node3"><path d="M245.7-254C245.7-254 187.33-254 187.33-254 181.33-254 175.33-248 175.33-242 175.33-242 175.33-228 175.33-228 175.33-222 181.33-216 187.33-216 187.33-216 245.7-216 245.7-216 251.7-216 257.7-222 257.7-228 257.7-228 257.7-242 257.7-242 257.7-248 251.7-254 245.7-254" stroke="#8FD856" stroke-width="2" fill="none"/><text font-family="sans" font-size="10" text-anchor="middle" x="216.52" y="-242">calc_distance</text><text font-family="sans" font-size="10" text-anchor="middle" x="216.52" y="-232">bin_size: 5</text><text font-family="sans" font-size="10" text-anchor="middle" x="216.52" y="-222">metric: cucconi</text></g><g id="edge2"><path d="M193.93-215.96C183.83-206.46 173-193.9 167.52-180 149.92-135.34 135.05-108.25 166.52-72 209.91-22.03 417.35-17.91 503.2-18.4" stroke="#808080" stroke-width="2" fill="none"/><path d="M503.26-21.9 513.29-18.49 503.31-14.9 503.26-21.9Z" stroke="#808080" stroke-width="2" fill="#808080"/></g><g id="node21"><path d="M244.44-180C244.44-180 188.6-180 188.6-180 182.6-180 176.6-174 176.6-168 176.6-168 176.6-156 176.6-156 176.6-150 182.6-144 188.6-144 188.6-144 244.44-144 244.44-144 250.44-144 256.44-150 256.44-156 256.44-156 256.44-168 256.44-168 256.44-174 250.44-180 244.44-180" stroke="#56D892" stroke-width="2" fill="none"/><text font-family="sans" font-size="10" text-anchor="middle" x="216.52" y="-159">calc_short_file</text></g><g id="edge38"><path d="M216.52-215.72C216.52-207.97 216.52-198.79 216.52-190.27" stroke="#808080" stroke-width="2" fill="none"/><path d="M220.02-190 216.52-180 213.02-190 220.02-190Z" stroke="#808080" stroke-width="2" fill="#808080"/></g><g id="node4"><path d="M350.61-254C350.61-254 298.43-254 298.43-254 292.43-254 286.43-248 286.43-242 286.43-242 286.43-228 286.43-228 286.43-222 292.43-216 298.43-216 298.43-216 350.61-216 350.61-216 356.61-216 362.61-222 362.61-228 362.61-228 362.61-242 362.61-242 362.61-248 356.61-254 350.61-254" stroke="#8FD856" stroke-width="2" fill="none"/><text font-family="sans" font-size="10" text-anchor="middle" x="324.52" y="-242">calc_distance</text><text font-family="sans" font-size="10" text-anchor="middle" x="324.52" y="-232">bin_size: 25</text><text font-family="sans" font-size="10" text-anchor="middle" x="324.52" y="-222">metric: ks</text></g><g id="edge3"><path d="M338.9-215.97C346.83-205.69 356.65-192.41 364.52-180 393.7-133.99 382.66-109.14 422.52-72 445.44-50.65 478.41-36.83 503.68-28.67" stroke="#808080" stroke-width="2" fill="none"/><path d="M504.76-32 513.3-25.72 502.71-25.31 504.76-32Z" stroke="#808080" stroke-width="2" fill="#808080"/></g><g id="node22"><path d="M343.44-180C343.44-180 287.6-180 287.6-180 281.6-180 275.6-174 275.6-168 275.6-168 275.6-156 275.6-156 275.6-150 281.6-144 287.6-144 287.6-144 343.44-144 343.44-144 349.44-144 355.44-150 355.44-156 355.44-156 355.44-168 355.44-168 355.44-174 349.44-180 343.44-180" stroke="#56D892" stroke-width="2" fill="none"/><text font-family="sans" font-size="10" text-anchor="middle" x="315.52" y="-159">calc_short_file</text></g><g id="edge39"><path d="M322.2-215.72C321.21-207.89 320.03-198.59 318.94-189.99" stroke="#808080" stroke-width="2" fill="none"/><path d="M322.4-189.48 317.67-180 315.46-190.36 322.4-189.48Z" stroke="#808080" stroke-width="2" fill="#808080"/></g><g id="node5"><path d="M451.7-254C451.7-254 393.33-254 393.33-254 387.33-254 381.33-248 381.33-242 381.33-242 381.33-228 381.33-228 381.33-222 387.33-216 393.33-216 393.33-216 451.7-216 451.7-216 457.7-216 463.7-222 463.7-228 463.7-228 463.7-242 463.7-242 463.7-248 457.7-254 451.7-254" stroke="#8FD856" stroke-width="2" fill="none"/><text font-family="sans" font-size="10" text-anchor="middle" x="422.52" y="-242">calc_distance</text><text font-family="sans" font-size="10" text-anchor="middle" x="422.52" y="-232">bin_size: 25</text><text font-family="sans" font-size="10" text-anchor="middle" x="422.52" y="-222">metric: cucconi</text></g><g id="edge4"><path d="M419.58-215.86C415.41-183.81 411.31-116.35 441.52-72 456.08-50.62 482.14-37.17 503.87-29.17" stroke="#808080" stroke-width="2" fill="none"/><path d="M505.17-32.42 513.49-25.86 502.9-25.8 505.17-32.42Z" stroke="#808080" stroke-width="2" fill="#808080"/></g><g id="node23"><path d="M519.44-180C519.44-180 463.6-180 463.6-180 457.6-180 451.6-174 451.6-168 451.6-168 451.6-156 451.6-156 451.6-150 457.6-144 463.6-144 463.6-144 519.44-144 519.44-144 525.44-144 531.44-150 531.44-156 531.44-156 531.44-168 531.44-168 531.44-174 525.44-180 519.44-180" stroke="#56D892" stroke-width="2" fill="none"/><text font-family="sans" font-size="10" text-anchor="middle" x="491.52" y="-159">calc_short_file</text></g><g id="edge40"><path d="M440.29-215.72C448.73-207.03 458.94-196.52 468.02-187.19" stroke="#808080" stroke-width="2" fill="none"/><path d="M470.54-189.61 475-180 465.52-184.74 470.54-189.61Z" stroke="#808080" stroke-width="2" fill="#808080"/></g><g id="node6"><path d="M685.61-254C685.61-254 633.43-254 633.43-254 627.43-254 621.43-248 621.43-242 621.43-242 621.43-228 621.43-228 621.43-222 627.43-216 633.43-216 633.43-216 685.61-216 685.61-216 691.61-216 697.61-222 697.61-228 697.61-228 697.61-242 697.61-242 697.61-248 691.61-254 685.61-254" stroke="#8FD856" stroke-width="2" fill="none"/><text font-family="sans" font-size="10" text-anchor="middle" x="659.52" y="-242">calc_distance</text><text font-family="sans" font-size="10" text-anchor="middle" x="659.52" y="-232">bin_size: 5</text><text font-family="sans" font-size="10" text-anchor="middle" x="659.52" y="-222">metric: ks</text></g><g id="edge5"><path d="M662.47-215.85C666.67-183.78 670.82-116.29 640.52-72 625.8-50.48 599.47-37.03 577.53-29.07" stroke="#808080" stroke-width="2" fill="none"/><path d="M578.41-25.67 567.81-25.79 576.17-32.3 578.41-25.67Z" stroke="#808080" stroke-width="2" fill="#808080"/></g><g id="node24"><path d="M618.44-180C618.44-180 562.6-180 562.6-180 556.6-180 550.6-174 550.6-168 550.6-168 550.6-156 550.6-156 550.6-150 556.6-144 562.6-144 562.6-144 618.44-144 618.44-144 624.44-144 630.44-150 630.44-156 630.44-156 630.44-168 630.44-168 630.44-174 624.44-180 618.44-180" stroke="#56D892" stroke-width="2" fill="none"/><text font-family="sans" font-size="10" text-anchor="middle" x="590.52" y="-159">calc_short_file</text></g><g id="edge41"><path d="M641.75-215.72C633.31-207.03 623.1-196.52 614.02-187.19" stroke="#808080" stroke-width="2" fill="none"/><path d="M616.52-184.74 607.04-180 611.5-189.61 616.52-184.74Z" stroke="#808080" stroke-width="2" fill="#808080"/></g><g id="node7"><path d="M786.7-254C786.7-254 728.33-254 728.33-254 722.33-254 716.33-248 716.33-242 716.33-242 716.33-228 716.33-228 716.33-222 722.33-216 728.33-216 728.33-216 786.7-216 786.7-216 792.7-216 798.7-222 798.7-228 798.7-228 798.7-242 798.7-242 798.7-248 792.7-254 786.7-254" stroke="#8FD856" stroke-width="2" fill="none"/><text font-family="sans" font-size="10" text-anchor="middle" x="757.52" y="-242">calc_distance</text><text font-family="sans" font-size="10" text-anchor="middle" x="757.52" y="-232">bin_size: 5</text><text font-family="sans" font-size="10" text-anchor="middle" x="757.52" y="-222">metric: cucconi</text></g><g id="edge6"><path d="M742.25-215.6C734.14-205.42 724.28-192.36 716.52-180 687.9-134.37 700.7-108.96 661.52-72 637.96-49.77 603.56-35.94 577.46-28" stroke="#808080" stroke-width="2" fill="none"/><path d="M578.12-24.55 567.54-25.15 576.19-31.28 578.12-24.55Z" stroke="#808080" stroke-width="2" fill="#808080"/></g><g id="node25"><path d="M793.44-180C793.44-180 737.6-180 737.6-180 731.6-180 725.6-174 725.6-168 725.6-168 725.6-156 725.6-156 725.6-150 731.6-144 737.6-144 737.6-144 793.44-144 793.44-144 799.44-144 805.44-150 805.44-156 805.44-156 805.44-168 805.44-168 805.44-174 799.44-180 793.44-180" stroke="#56D892" stroke-width="2" fill="none"/><text font-family="sans" font-size="10" text-anchor="middle" x="765.52" y="-159">calc_short_file</text></g><g id="edge42"><path d="M759.58-215.72C760.46-207.89 761.51-198.59 762.48-189.99" stroke="#808080" stroke-width="2" fill="none"/><path d="M765.96-190.33 763.6-180 759.01-189.55 765.96-190.33Z" stroke="#808080" stroke-width="2" fill="#808080"/></g><g id="node8"><path d="M891.61-254C891.61-254 839.43-254 839.43-254 833.43-254 827.43-248 827.43-242 827.43-242 827.43-228 827.43-228 827.43-222 833.43-216 839.43-216 839.43-216 891.61-216 891.61-216 897.61-216 903.61-222 903.61-228 903.61-228 903.61-242 903.61-242 903.61-248 897.61-254 891.61-254" stroke="#8FD856" stroke-width="2" fill="none"/><text font-family="sans" font-size="10" text-anchor="middle" x="865.52" y="-242">calc_distance</text><text font-family="sans" font-size="10" text-anchor="middle" x="865.52" y="-232">bin_size: 25</text><text font-family="sans" font-size="10" text-anchor="middle" x="865.52" y="-222">metric: ks</text></g><g id="edge7"><path d="M888.11-215.96C898.2-206.46 909.04-193.9 914.52-180 932.12-135.34 947-108.24 915.52-72 871.96-21.85 663.52-17.85 577.63-18.39" stroke="#808080" stroke-width="2" fill="none"/><path d="M577.52-14.89 567.55-18.48 577.58-21.89 577.52-14.89Z" stroke="#808080" stroke-width="2" fill="#808080"/></g><g id="node26"><path d="M893.44-180C893.44-180 837.6-180 837.6-180 831.6-180 825.6-174 825.6-168 825.6-168 825.6-156 825.6-156 825.6-150 831.6-144 837.6-144 837.6-144 893.44-144 893.44-144 899.44-144 905.44-150 905.44-156 905.44-156 905.44-168 905.44-168 905.44-174 899.44-180 893.44-180" stroke="#56D892" stroke-width="2" fill="none"/><text font-family="sans" font-size="10" text-anchor="middle" x="865.52" y="-159">calc_short_file</text></g><g id="edge43"><path d="M865.52-215.72C865.52-207.97 865.52-198.79 865.52-190.27" stroke="#808080" stroke-width="2" fill="none"/><path d="M869.02-190 865.52-180 862.02-190 869.02-190Z" stroke="#808080" stroke-width="2" fill="#808080"/></g><g id="node9"><path d="M1001.7-254C1001.7-254 943.33-254 943.33-254 937.33-254 931.33-248 931.33-242 931.33-242 931.33-228 931.33-228 931.33-222 937.33-216 943.33-216 943.33-216 1001.7-216 1001.7-216 1007.7-216 1013.7-222 1013.7-228 1013.7-228 1013.7-242 1013.7-242 1013.7-248 1007.7-254 1001.7-254" stroke="#8FD856" stroke-width="2" fill="none"/><text font-family="sans" font-size="10" text-anchor="middle" x="972.52" y="-242">calc_distance</text><text font-family="sans" font-size="10" text-anchor="middle" x="972.52" y="-232">bin_size: 25</text><text font-family="sans" font-size="10" text-anchor="middle" x="972.52" y="-222">metric: cucconi</text></g><g id="edge8"><path d="M974.64-215.98C977.5-182.24 978.22-109.57 937.52-72 885.66-24.13 666.42-18.85 577.86-18.72" stroke="#808080" stroke-width="2" fill="none"/><path d="M577.72-15.22 567.72-18.73 577.73-22.22 577.72-15.22Z" stroke="#808080" stroke-width="2" fill="#808080"/></g><g id="node27"><path d="M1068.44-180C1068.44-180 1012.6-180 1012.6-180 1006.6-180 1000.6-174 1000.6-168 1000.6-168 1000.6-156 1000.6-156 1000.6-150 1006.6-144 1012.6-144 1012.6-144 1068.44-144 1068.44-144 1074.44-144 1080.44-150 1080.44-156 1080.44-156 1080.44-168 1080.44-168 1080.44-174 1074.44-180 1068.44-180" stroke="#56D892" stroke-width="2" fill="none"/><text font-family="sans" font-size="10" text-anchor="middle" x="1040.52" y="-159">calc_short_file</text></g><g id="edge44"><path d="M990.03-215.72C998.27-207.11 1008.21-196.73 1017.09-187.46" stroke="#808080" stroke-width="2" fill="none"/><path d="M1019.85-189.65 1024.23-180 1014.79-184.8 1019.85-189.65Z" stroke="#808080" stroke-width="2" fill="#808080"/></g><g id="node10"><path d="M69.06-108C69.06-108 11.98-108 11.98-108 5.98-108-0.02-102-0.02-96-0.02-96-0.02-84-0.02-84-0.02-78 5.98-72 11.98-72 11.98-72 69.06-72 69.06-72 75.06-72 81.06-78 81.06-84 81.06-84 81.06-96 81.06-96 81.06-102 75.06-108 69.06-108" stroke="#D88D56" stroke-width="2" fill="none"/><text font-family="sans" font-size="10" text-anchor="middle" x="40.52" y="-87">convert_to_hic</text></g><g id="edge9"><path d="M81.15-75.54C85.96-74.22 90.83-73 95.52-72 244.71-40.33 426.35-26.09 503.26-21.15" stroke="#808080" stroke-width="2" fill="none"/><path d="M503.64-24.63 513.41-20.51 503.21-17.65 503.64-24.63Z" stroke="#808080" stroke-width="2" fill="#808080"/></g><g id="node11"><path d="M245.06-108C245.06-108 187.98-108 187.98-108 181.98-108 175.98-102 175.98-96 175.98-96 175.98-84 175.98-84 175.98-78 181.98-72 187.98-72 187.98-72 245.06-72 245.06-72 251.06-72 257.06-78 257.06-84 257.06-84 257.06-96 257.06-96 257.06-102 251.06-108 245.06-108" stroke="#D88D56" stroke-width="2" fill="none"/><text font-family="sans" font-size="10" text-anchor="middle" x="216.52" y="-87">convert_to_hic</text></g><g id="edge10"><path d="M257.29-74.36C260.06-73.52 262.82-72.72 265.52-72 349.39-49.49 450.08-32.6 503.3-24.43" stroke="#808080" stroke-width="2" fill="none"/><path d="M503.93-27.88 513.29-22.92 502.88-20.96 503.93-27.88Z" stroke="#808080" stroke-width="2" fill="#808080"/></g><g id="node12"><path d="M344.06-108C344.06-108 286.98-108 286.98-108 280.98-108 274.98-102 274.98-96 274.98-96 274.98-84 274.98-84 274.98-78 280.98-72 286.98-72 286.98-72 344.06-72 344.06-72 350.06-72 356.06-78 356.06-84 356.06-84 356.06-96 356.06-96 356.06-102 350.06-108 344.06-108" stroke="#D88D56" stroke-width="2" fill="none"/><text font-family="sans" font-size="10" text-anchor="middle" x="315.52" y="-87">convert_to_hic</text></g><g id="edge11"><path d="M356.27-76.32C398.29-63.25 463.25-43.04 503.76-30.44" stroke="#808080" stroke-width="2" fill="none"/><path d="M504.99-33.72 513.5-27.41 502.91-27.04 504.99-33.72Z" stroke="#808080" stroke-width="2" fill="#808080"/></g><g id="node13"><path d="M520.06-108C520.06-108 462.98-108 462.98-108 456.98-108 450.98-102 450.98-96 450.98-96 450.98-84 450.98-84 450.98-78 456.98-72 462.98-72 462.98-72 520.06-72 520.06-72 526.06-72 532.06-78 532.06-84 532.06-84 532.06-96 532.06-96 532.06-102 526.06-108 520.06-108" stroke="#D88D56" stroke-width="2" fill="none"/><text font-family="sans" font-size="10" text-anchor="middle" x="491.52" y="-87">convert_to_hic</text></g><g id="edge12"><path d="M503.63-71.7C509.39-63.47 516.38-53.48 522.73-44.42" stroke="#808080" stroke-width="2" fill="none"/><path d="M525.68-46.3 528.55-36.1 519.94-42.29 525.68-46.3Z" stroke="#808080" stroke-width="2" fill="#808080"/></g><g id="node14"><path d="M619.06-108C619.06-108 561.98-108 561.98-108 555.98-108 549.98-102 549.98-96 549.98-96 549.98-84 549.98-84 549.98-78 555.98-72 561.98-72 561.98-72 619.06-72 619.06-72 625.06-72 631.06-78 631.06-84 631.06-84 631.06-96 631.06-96 631.06-102 625.06-108 619.06-108" stroke="#D88D56" stroke-width="2" fill="none"/><text font-family="sans" font-size="10" text-anchor="middle" x="590.52" y="-87">convert_to_hic</text></g><g id="edge13"><path d="M578.16-71.7C572.29-63.47 565.15-53.48 558.68-44.42" stroke="#808080" stroke-width="2" fill="none"/><path d="M561.4-42.21 552.74-36.1 555.7-46.28 561.4-42.21Z" stroke="#808080" stroke-width="2" fill="#808080"/></g><g id="node15"><path d="M795.06-108C795.06-108 737.98-108 737.98-108 731.98-108 725.98-102 725.98-96 725.98-96 725.98-84 725.98-84 725.98-78 731.98-72 737.98-72 737.98-72 795.06-72 795.06-72 801.06-72 807.06-78 807.06-84 807.06-84 807.06-96 807.06-96 807.06-102 801.06-108 795.06-108" stroke="#D88D56" stroke-width="2" fill="none"/><text font-family="sans" font-size="10" text-anchor="middle" x="766.52" y="-87">convert_to_hic</text></g><g id="edge14"><path d="M725.85-76.4C683.68-63.34 618.31-43.09 577.54-30.47" stroke="#808080" stroke-width="2" fill="none"/><path d="M578.32-27.04 567.73-27.43 576.24-33.73 578.32-27.04Z" stroke="#808080" stroke-width="2" fill="#808080"/></g><g id="node16"><path d="M894.06-108C894.06-108 836.98-108 836.98-108 830.98-108 824.98-102 824.98-96 824.98-96 824.98-84 824.98-84 824.98-78 830.98-72 836.98-72 836.98-72 894.06-72 894.06-72 900.06-72 906.06-78 906.06-84 906.06-84 906.06-96 906.06-96 906.06-102 900.06-108 894.06-108" stroke="#D88D56" stroke-width="2" fill="none"/><text font-family="sans" font-size="10" text-anchor="middle" x="865.52" y="-87">convert_to_hic</text></g><g id="edge15"><path d="M824.75-74.36C821.98-73.52 819.22-72.72 816.52-72 732.35-49.44 631.29-32.56 577.87-24.42" stroke="#808080" stroke-width="2" fill="none"/><path d="M578.26-20.94 567.85-22.91 577.21-27.86 578.26-20.94Z" stroke="#808080" stroke-width="2" fill="#808080"/></g><g id="node17"><path d="M1070.06-108C1070.06-108 1012.98-108 1012.98-108 1006.98-108 1000.98-102 1000.98-96 1000.98-96 1000.98-84 1000.98-84 1000.98-78 1006.98-72 1012.98-72 1012.98-72 1070.06-72 1070.06-72 1076.06-72 1082.06-78 1082.06-84 1082.06-84 1082.06-96 1082.06-96 1082.06-102 1076.06-108 1070.06-108" stroke="#D88D56" stroke-width="2" fill="none"/><text font-family="sans" font-size="10" text-anchor="middle" x="1041.52" y="-87">convert_to_hic</text></g><g id="edge16"><path d="M1000.89-75.54C996.08-74.22 991.21-73 986.52-72 836.99-40.28 654.95-26.06 577.86-21.14" stroke="#808080" stroke-width="2" fill="none"/><path d="M577.89-17.64 567.69-20.51 577.46-24.62 577.89-17.64Z" stroke="#808080" stroke-width="2" fill="#808080"/></g><g id="node18"><path d="M343.43-326C343.43-326 307.61-326 307.61-326 301.61-326 295.61-320 295.61-314 295.61-314 295.61-302 295.61-302 295.61-296 301.61-290 307.61-290 307.61-290 343.43-290 343.43-290 349.43-290 355.43-296 355.43-302 355.43-302 355.43-314 355.43-314 355.43-320 349.43-326 343.43-326" stroke="#56D873" stroke-width="2" fill="none"/><text font-family="sans" font-size="10" text-anchor="middle" x="325.52" y="-305">gem_filter</text></g><g id="edge17"><path d="M295.49-297.13C259.67-285.36 199.37-265.54 157.17-251.66" stroke="#808080" stroke-width="2" fill="none"/><path d="M158.25-248.34 147.66-248.54 156.07-254.99 158.25-248.34Z" stroke="#808080" stroke-width="2" fill="#808080"/></g><g id="edge18"><path d="M299.41-289.99C285.51-280.94 268.19-269.66 252.99-259.75" stroke="#808080" stroke-width="2" fill="none"/><path d="M254.61-256.63 244.32-254.11 250.79-262.5 254.61-256.63Z" stroke="#808080" stroke-width="2" fill="#808080"/></g><g id="edge19"><path d="M325.28-289.81C325.17-282.11 325.04-272.82 324.92-264.15" stroke="#808080" stroke-width="2" fill="none"/><path d="M328.41-263.97 324.77-254.02 321.41-264.07 328.41-263.97Z" stroke="#808080" stroke-width="2" fill="#808080"/></g><g id="edge20"><path d="M349-289.81C361.14-280.93 376.17-269.93 389.46-260.2" stroke="#808080" stroke-width="2" fill="none"/><path d="M391.9-262.75 397.9-254.02 387.76-257.1 391.9-262.75Z" stroke="#808080" stroke-width="2" fill="#808080"/></g><g id="node19"><path d="M774.43-326C774.43-326 738.61-326 738.61-326 732.61-326 726.61-320 726.61-314 726.61-314 726.61-302 726.61-302 726.61-296 732.61-290 738.61-290 738.61-290 774.43-290 774.43-290 780.43-290 786.43-296 786.43-302 786.43-302 786.43-314 786.43-314 786.43-320 780.43-326 774.43-326" stroke="#56D873" stroke-width="2" fill="none"/><text font-family="sans" font-size="10" text-anchor="middle" x="756.52" y="-305">gem_filter</text></g><g id="edge21"><path d="M733.04-289.81C720.9-280.93 705.87-269.93 692.58-260.2" stroke="#808080" stroke-width="2" fill="none"/><path d="M694.27-257.1 684.14-254.02 690.14-262.75 694.27-257.1Z" stroke="#808080" stroke-width="2" fill="#808080"/></g><g id="edge22"><path d="M756.76-289.81C756.87-282.11 757-272.82 757.12-264.15" stroke="#808080" stroke-width="2" fill="none"/><path d="M760.62-264.07 757.27-254.02 753.63-263.97 760.62-264.07Z" stroke="#808080" stroke-width="2" fill="#808080"/></g><g id="edge23"><path d="M782.63-289.99C796.53-280.94 813.84-269.66 829.05-259.75" stroke="#808080" stroke-width="2" fill="none"/><path d="M831.25-262.5 837.72-254.11 827.43-256.63 831.25-262.5Z" stroke="#808080" stroke-width="2" fill="#808080"/></g><g id="edge24"><path d="M786.55-297.13C821.5-285.64 879.78-266.48 921.79-252.67" stroke="#808080" stroke-width="2" fill="none"/><path d="M922.89-256 931.3-249.55 920.7-249.35 922.89-256Z" stroke="#808080" stroke-width="2" fill="#808080"/></g><g id="edge25"><path d="M41.27-143.7C41.16-135.98 41.03-126.71 40.91-118.11" stroke="#808080" stroke-width="2" fill="none"/><path d="M44.41-118.05 40.76-108.1 37.41-118.15 44.41-118.05Z" stroke="#808080" stroke-width="2" fill="#808080"/></g><g id="edge26"><path d="M216.52-143.7C216.52-135.98 216.52-126.71 216.52-118.11" stroke="#808080" stroke-width="2" fill="none"/><path d="M220.02-118.1 216.52-108.1 213.02-118.1 220.02-118.1Z" stroke="#808080" stroke-width="2" fill="#808080"/></g><g id="edge27"><path d="M315.52-143.7C315.52-135.98 315.52-126.71 315.52-118.11" stroke="#808080" stroke-width="2" fill="none"/><path d="M319.02-118.1 315.52-108.1 312.02-118.1 319.02-118.1Z" stroke="#808080" stroke-width="2" fill="#808080"/></g><g id="edge28"><path d="M491.52-143.7C491.52-135.98 491.52-126.71 491.52-118.11" stroke="#808080" stroke-width="2" fill="none"/><path d="M495.02-118.1 491.52-108.1 488.02-118.1 495.02-118.1Z" stroke="#808080" stroke-width="2" fill="#808080"/></g><g id="edge29"><path d="M590.52-143.7C590.52-135.98 590.52-126.71 590.52-118.11" stroke="#808080" stroke-width="2" fill="none"/><path d="M594.02-118.1 590.52-108.1 587.02-118.1 594.02-118.1Z" stroke="#808080" stroke-width="2" fill="#808080"/></g><g id="edge30"><path d="M765.77-143.7C765.88-135.98 766.01-126.71 766.13-118.11" stroke="#808080" stroke-width="2" fill="none"/><path d="M769.63-118.15 766.28-108.1 762.63-118.05 769.63-118.15Z" stroke="#808080" stroke-width="2" fill="#808080"/></g><g id="edge31"><path d="M865.52-143.7C865.52-135.98 865.52-126.71 865.52-118.11" stroke="#808080" stroke-width="2" fill="none"/><path d="M869.02-118.1 865.52-108.1 862.02-118.1 869.02-118.1Z" stroke="#808080" stroke-width="2" fill="#808080"/></g><g id="edge32"><path d="M1040.77-143.7C1040.88-135.98 1041.01-126.71 1041.13-118.11" stroke="#808080" stroke-width="2" fill="none"/><path d="M1044.63-118.15 1041.28-108.1 1037.63-118.05 1044.63-118.15Z" stroke="#808080" stroke-width="2" fill="#808080"/></g><g id="node28"><path d="M686.99-398C686.99-398 630.05-398 630.05-398 624.05-398 618.05-392 618.05-386 618.05-386 618.05-374 618.05-374 618.05-368 624.05-362 630.05-362 630.05-362 686.99-362 686.99-362 692.99-362 698.99-368 698.99-374 698.99-374 698.99-386 698.99-386 698.99-392 692.99-398 686.99-398" stroke="#56D8A9" stroke-width="2" fill="none"/><text font-family="sans" font-size="10" text-anchor="middle" x="658.52" y="-377">samtools_filter</text></g><g id="edge33"><path d="M618.02-364.43C615.16-363.56 612.3-362.74 609.52-362 523.89-339.29 421.24-322.69 365.81-314.58" stroke="#808080" stroke-width="2" fill="none"/><path d="M366.09-311.08 355.7-313.12 365.09-318.01 366.09-311.08Z" stroke="#808080" stroke-width="2" fill="#808080"/></g><g id="node29"><path d="M350.1-398C350.1-398 302.94-398 302.94-398 296.94-398 290.94-392 290.94-386 290.94-386 290.94-374 290.94-374 290.94-368 296.94-362 302.94-362 302.94-362 350.1-362 350.1-362 356.1-362 362.1-368 362.1-374 362.1-374 362.1-386 362.1-386 362.1-392 356.1-398 350.1-398" stroke="#AFD856" stroke-width="2" fill="none"/><text font-family="sans" font-size="10" text-anchor="middle" x="326.52" y="-377">split_chr_bw</text></g><g id="edge34"><path d="M326.27-361.7C326.16-353.98 326.03-344.71 325.91-336.11" stroke="#808080" stroke-width="2" fill="none"/><path d="M329.41-336.05 325.76-326.1 322.41-336.15 329.41-336.05Z" stroke="#808080" stroke-width="2" fill="#808080"/></g><g id="node30"><path d="M784.99-398C784.99-398 728.05-398 728.05-398 722.05-398 716.05-392 716.05-386 716.05-386 716.05-374 716.05-374 716.05-368 722.05-362 728.05-362 728.05-362 784.99-362 784.99-362 790.99-362 796.99-368 796.99-374 796.99-374 796.99-386 796.99-386 796.99-392 790.99-398 784.99-398" stroke="#56D8A9" stroke-width="2" fill="none"/><text font-family="sans" font-size="10" text-anchor="middle" x="756.52" y="-377">samtools_filter</text></g><g id="edge35"><path d="M756.52-361.7C756.52-353.98 756.52-344.71 756.52-336.11" stroke="#808080" stroke-width="2" fill="none"/><path d="M760.02-336.1 756.52-326.1 753.02-336.1 760.02-336.1Z" stroke="#808080" stroke-width="2" fill="#808080"/></g><g id="node31"><path d="M588.1-398C588.1-398 540.94-398 540.94-398 534.94-398 528.94-392 528.94-386 528.94-386 528.94-374 528.94-374 528.94-368 534.94-362 540.94-362 540.94-362 588.1-362 588.1-362 594.1-362 600.1-368 600.1-374 600.1-374 600.1-386 600.1-386 600.1-392 594.1-398 588.1-398" stroke="#AFD856" stroke-width="2" fill="none"/><text font-family="sans" font-size="10" text-anchor="middle" x="564.52" y="-377">split_chr_bw</text></g><g id="edge36"><path d="M600.36-365.4C603.46-364.25 606.54-363.1 609.52-362 645.76-348.62 687.17-333.73 716.78-323.14" stroke="#808080" stroke-width="2" fill="none"/><path d="M718.11-326.39 726.35-319.73 715.75-319.79 718.11-326.39Z" stroke="#808080" stroke-width="2" fill="#808080"/></g><g id="node32"><path d="M686.17-470C686.17-470 632.87-470 632.87-470 626.87-470 620.87-464 620.87-458 620.87-458 620.87-446 620.87-446 620.87-440 626.87-434 632.87-434 632.87-434 686.17-434 686.17-434 692.17-434 698.17-440 698.17-446 698.17-446 698.17-458 698.17-458 698.17-464 692.17-470 686.17-470" stroke="#59D856" stroke-width="2" fill="none"/><text font-family="sans" font-size="10" text-anchor="middle" x="659.52" y="-454">split_bam</text><text font-family="sans" font-size="10" text-anchor="middle" x="659.52" y="-444">chr_name: 21</text></g><g id="edge45"><path d="M659.27-433.7C659.16-425.98 659.03-416.71 658.91-408.11" stroke="#808080" stroke-width="2" fill="none"/><path d="M662.41-408.05 658.76-398.1 655.41-408.15 662.41-408.05Z" stroke="#808080" stroke-width="2" fill="#808080"/></g><g id="node33"><path d="M424.13-470C424.13-470 366.91-470 366.91-470 360.91-470 354.91-464 354.91-458 354.91-458 354.91-446 354.91-446 354.91-440 360.91-434 366.91-434 366.91-434 424.13-434 424.13-434 430.13-434 436.13-440 436.13-446 436.13-446 436.13-458 436.13-458 436.13-464 430.13-470 424.13-470" stroke="#D87556" stroke-width="2" fill="none"/><text font-family="sans" font-size="10" text-anchor="middle" x="395.52" y="-454">split_bedgraph</text><text font-family="sans" font-size="10" text-anchor="middle" x="395.52" y="-444">chr: 21</text></g><g id="edge46"><path d="M378.46-433.7C370.02-425.14 359.69-414.66 350.48-405.3" stroke="#808080" stroke-width="2" fill="none"/><path d="M352.89-402.77 343.38-398.1 347.91-407.68 352.89-402.77Z" stroke="#808080" stroke-width="2" fill="#808080"/></g><g id="node34"><path d="M461.54-614C461.54-614 429.5-614 429.5-614 423.5-614 417.5-608 417.5-602 417.5-602 417.5-590 417.5-590 417.5-584 423.5-578 429.5-578 429.5-578 461.54-578 461.54-578 467.54-578 473.54-584 473.54-590 473.54-590 473.54-602 473.54-602 473.54-608 467.54-614 461.54-614" stroke="#56C9D8" stroke-width="2" fill="none"/><text font-family="sans" font-size="10" text-anchor="middle" x="445.52" y="-593">gem_wig</text></g><g id="edge47"><path d="M426.35-577.65C402.99-555.27 364.31-513.95 345.52-470 337.1-450.3 332.27-426.49 329.59-408.46" stroke="#808080" stroke-width="2" fill="none"/><path d="M333.02-407.77 328.21-398.33 326.09-408.71 333.02-407.77Z" stroke="#808080" stroke-width="2" fill="#808080"/></g><g id="edge50"><path d="M464.69-577.65C488.05-555.27 526.73-513.95 545.52-470 553.94-450.3 558.77-426.49 561.45-408.46" stroke="#808080" stroke-width="2" fill="none"/><path d="M564.95-408.71 562.83-398.33 558.02-407.77 564.95-408.71Z" stroke="#808080" stroke-width="2" fill="#808080"/></g><g id="node38"><path d="M475.91-542C475.91-542 415.13-542 415.13-542 409.13-542 403.13-536 403.13-530 403.13-530 403.13-518 403.13-518 403.13-512 409.13-506 415.13-506 415.13-506 475.91-506 475.91-506 481.91-506 487.91-512 487.91-518 487.91-518 487.91-530 487.91-530 487.91-536 481.91-542 475.91-542" stroke="#5673D8" stroke-width="2" fill="none"/><text font-family="sans" font-size="10" text-anchor="middle" x="445.52" y="-521">wig2begdgraph</text></g><g id="edge57"><path d="M445.52-577.7C445.52-569.98 445.52-560.71 445.52-552.11" stroke="#808080" stroke-width="2" fill="none"/><path d="M449.02-552.1 445.52-542.1 442.02-552.1 449.02-552.1Z" stroke="#808080" stroke-width="2" fill="#808080"/></g><g id="node35"><path d="M782.17-470C782.17-470 728.87-470 728.87-470 722.87-470 716.87-464 716.87-458 716.87-458 716.87-446 716.87-446 716.87-440 722.87-434 728.87-434 728.87-434 782.17-434 782.17-434 788.17-434 794.17-440 794.17-446 794.17-446 794.17-458 794.17-458 794.17-464 788.17-470 782.17-470" stroke="#59D856" stroke-width="2" fill="none"/><text font-family="sans" font-size="10" text-anchor="middle" x="755.52" y="-454">split_bam</text><text font-family="sans" font-size="10" text-anchor="middle" x="755.52" y="-444">chr_name: 22</text></g><g id="edge48"><path d="M755.77-433.7C755.88-425.98 756.01-416.71 756.13-408.11" stroke="#808080" stroke-width="2" fill="none"/><path d="M759.63-408.15 756.28-398.1 752.63-408.05 759.63-408.15Z" stroke="#808080" stroke-width="2" fill="#808080"/></g><g id="node36"><path d="M524.13-470C524.13-470 466.91-470 466.91-470 460.91-470 454.91-464 454.91-458 454.91-458 454.91-446 454.91-446 454.91-440 460.91-434 466.91-434 466.91-434 524.13-434 524.13-434 530.13-434 536.13-440 536.13-446 536.13-446 536.13-458 536.13-458 536.13-464 530.13-470 524.13-470" stroke="#D87556" stroke-width="2" fill="none"/><text font-family="sans" font-size="10" text-anchor="middle" x="495.52" y="-454">split_bedgraph</text><text font-family="sans" font-size="10" text-anchor="middle" x="495.52" y="-444">chr: 22</text></g><g id="edge49"><path d="M512.58-433.7C521.02-425.14 531.34-414.66 540.56-405.3" stroke="#808080" stroke-width="2" fill="none"/><path d="M543.13-407.68 547.66-398.1 538.15-402.77 543.13-407.68Z" stroke="#808080" stroke-width="2" fill="#808080"/></g><g id="node37"><path d="M748.64-542C748.64-542 666.4-542 666.4-542 660.4-542 654.4-536 654.4-530 654.4-530 654.4-518 654.4-518 654.4-512 660.4-506 666.4-506 666.4-506 748.64-506 748.64-506 754.64-506 760.64-512 760.64-518 760.64-518 760.64-530 760.64-530 760.64-536 754.64-542 748.64-542" stroke="#5692D8" stroke-width="2" fill="none"/><text font-family="sans" font-size="10" text-anchor="middle" x="707.52" y="-526">get_sra</text><text font-family="sans" font-size="10" text-anchor="middle" x="707.52" y="-516">sample_name: bh01</text></g><g id="edge51"><path d="M695.65-505.7C690.02-497.47 683.17-487.48 676.95-478.42" stroke="#808080" stroke-width="2" fill="none"/><path d="M679.79-476.37 671.25-470.1 674.02-480.33 679.79-476.37Z" stroke="#808080" stroke-width="2" fill="#808080"/></g><g id="edge55"><path d="M719.38-505.7C725.02-497.47 731.87-487.48 738.09-478.42" stroke="#808080" stroke-width="2" fill="none"/><path d="M741.02-480.33 743.79-470.1 735.25-476.37 741.02-480.33Z" stroke="#808080" stroke-width="2" fill="#808080"/></g><g id="edge52"><path d="M433.16-505.7C427.29-497.47 420.15-487.48 413.68-478.42" stroke="#808080" stroke-width="2" fill="none"/><path d="M416.4-476.21 407.74-470.1 410.7-480.28 416.4-476.21Z" stroke="#808080" stroke-width="2" fill="#808080"/></g><g id="edge56"><path d="M457.88-505.7C463.75-497.47 470.89-487.48 477.36-478.42" stroke="#808080" stroke-width="2" fill="none"/><path d="M480.34-480.28 483.3-470.1 474.64-476.21 480.34-480.28Z" stroke="#808080" stroke-width="2" fill="#808080"/></g><g id="node39"><path d="M470.33-758C470.33-758 420.71-758 420.71-758 414.71-758 408.71-752 408.71-746 408.71-746 408.71-734 408.71-734 408.71-728 414.71-722 420.71-722 420.71-722 470.33-722 470.33-722 476.33-722 482.33-728 482.33-734 482.33-734 482.33-746 482.33-746 482.33-752 476.33-758 470.33-758" stroke="#D8AC56" stroke-width="2" fill="none"/><text font-family="sans" font-size="10" text-anchor="middle" x="445.52" y="-737">gem_indexer</text></g><g id="edge53"><path d="M438.04-721.7C434.05-711.52 429.55-698.27 427.52-686 424.91-670.21 424.91-665.79 427.52-650 428.96-641.28 431.65-632.06 434.52-623.8" stroke="#808080" stroke-width="2" fill="none"/><path d="M437.85-624.89 438.04-614.3 431.29-622.46 437.85-624.89Z" stroke="#808080" stroke-width="2" fill="#808080"/></g><g id="node40"><path d="M516.12-686C516.12-686 448.92-686 448.92-686 442.92-686 436.92-680 436.92-674 436.92-674 436.92-662 436.92-662 436.92-656 442.92-650 448.92-650 448.92-650 516.12-650 516.12-650 522.12-650 528.12-656 528.12-662 528.12-662 528.12-674 528.12-674 528.12-680 522.12-686 516.12-686" stroke="#C6D856" stroke-width="2" fill="none"/><text font-family="sans" font-size="10" text-anchor="middle" x="482.52" y="-670">gem_mappability</text><text font-family="sans" font-size="10" text-anchor="middle" x="482.52" y="-660">kmer: 45</text></g><g id="edge59"><path d="M454.67-721.7C458.92-713.64 464.08-703.89 468.79-694.98" stroke="#808080" stroke-width="2" fill="none"/><path d="M471.9-696.58 473.48-686.1 465.71-693.31 471.9-696.58Z" stroke="#808080" stroke-width="2" fill="#808080"/></g><g id="edge54"><path d="M473.37-649.7C469.12-641.64 463.96-631.89 459.25-622.98" stroke="#808080" stroke-width="2" fill="none"/><path d="M462.33-621.31 454.56-614.1 456.14-624.58 462.33-621.31Z" stroke="#808080" stroke-width="2" fill="#808080"/></g><g id="node41"><path d="M467.78-830C467.78-830 423.26-830 423.26-830 417.26-830 411.26-824 411.26-818 411.26-818 411.26-806 411.26-806 411.26-800 417.26-794 423.26-794 423.26-794 467.78-794 467.78-794 473.78-794 479.78-800 479.78-806 479.78-806 479.78-818 479.78-818 479.78-824 473.78-830 467.78-830" stroke="#56D8C9" stroke-width="2" fill="none"/><text font-family="sans" font-size="10" text-anchor="middle" x="445.52" y="-809">postproc_fa</text></g><g id="edge58"><path d="M445.52-793.7C445.52-785.98 445.52-776.71 445.52-768.11" stroke="#808080" stroke-width="2" fill="none"/><path d="M449.02-768.1 445.52-758.1 442.02-768.1 449.02-768.1Z" stroke="#808080" stroke-width="2" fill="#808080"/></g><g id="node42"><path d="M464.67-902C464.67-902 426.37-902 426.37-902 420.37-902 414.37-896 414.37-890 414.37-890 414.37-878 414.37-878 414.37-872 420.37-866 426.37-866 426.37-866 464.67-866 464.67-866 470.67-866 476.67-872 476.67-878 476.67-878 476.67-890 476.67-890 476.67-896 470.67-902 464.67-902" stroke="#70D856" stroke-width="2" fill="none"/><text font-family="sans" font-size="10" text-anchor="middle" x="445.52" y="-881">unpack_fa</text></g><g id="edge60"><path d="M445.52-865.7C445.52-857.98 445.52-848.71 445.52-840.11" stroke="#808080" stroke-width="2" fill="none"/><path d="M449.02-840.1 445.52-830.1 442.02-840.1 449.02-840.1Z" stroke="#808080" stroke-width="2" fill="#808080"/></g><g id="node43"><path d="M481.63-974C481.63-974 409.41-974 409.41-974 403.41-974 397.41-968 397.41-962 397.41-962 397.41-950 397.41-950 397.41-944 403.41-938 409.41-938 409.41-938 481.63-938 481.63-938 487.63-938 493.63-944 493.63-950 493.63-950 493.63-962 493.63-962 493.63-968 487.63-974 481.63-974" stroke="#D8CB56" stroke-width="2" fill="none"/><text font-family="sans" font-size="10" text-anchor="middle" x="445.52" y="-958">get_ref_genome</text><text font-family="sans" font-size="10" text-anchor="middle" x="445.52" y="-948">ref_name: hs37d5</text></g><g id="edge61"><path d="M445.52-937.7C445.52-929.98 445.52-920.71 445.52-912.11" stroke="#808080" stroke-width="2" fill="none"/><path d="M449.02-912.1 445.52-902.1 442.02-912.1 449.02-912.1Z" stroke="#808080" stroke-width="2" fill="#808080"/></g></g></svg>